<svg width="80" height="80" viewBox="0 0 80 80" fill="none" xmlns="http://www.w3.org/2000/svg">
<path fill-rule="evenodd" clip-rule="evenodd" d="M56.6667 26.6667C56.6667 35.8713 49.2047 43.3333 40 43.3333C30.7953 43.3333 23.3333 35.8713 23.3333 26.6667C23.3333 17.462 30.7953 10 40 10C49.2047 10 56.6667 17.462 56.6667 26.6667ZM53.3333 26.6667C53.3333 34.0305 47.3638 40 40 40C32.6362 40 26.6667 34.0305 26.6667 26.6667C26.6667 19.3028 32.6362 13.3333 40 13.3333C47.3638 13.3333 53.3333 19.3028 53.3333 26.6667Z" fill="#758AD6"/>
<path fill-rule="evenodd" clip-rule="evenodd" d="M29.8568 48.0922C29.863 48.1045 29.8692 48.1167 29.8753 48.1288C29.9178 48.2138 29.9593 48.296 30 48.3732H36.7732C38.2847 48.3728 39.0392 48.373 39.7948 48.3732H39.8362C40.5758 48.3733 41.33 48.3735 42.8085 48.3732H49.5822C49.9625 47.6507 50.8287 46.4972 51.6667 46.688C53.5493 47.1168 55.446 47.7145 57.2685 48.4493L57.324 48.4217L57.3422 48.4583L57.3545 48.4842C64.2135 51.2695 70 55.994 70 60.9502V70.0003H10V60.9502C10 54.658 19.3263 48.7393 28.3333 46.688C29.0688 46.5205 29.5042 47.3888 29.8568 48.0922ZM54.5072 50.9713C53.7915 50.7212 53.0663 50.4945 52.3382 50.2937L51.5943 51.7065H42.8085C41.2975 51.7068 40.5522 51.7067 39.816 51.7065C39.0625 51.7063 38.3187 51.7062 36.774 51.7065H27.9878L27.298 50.3962C27.0973 50.454 26.897 50.5138 26.697 50.5753C26.686 50.6852 26.6773 50.8092 26.6722 50.9482C26.6505 51.5232 26.6935 52.205 26.7882 52.9002C26.8827 53.5932 27.0232 54.258 27.1795 54.794C27.2043 54.8792 27.2292 54.9593 27.2535 55.0343C29.7385 55.325 31.6667 57.4375 31.6667 60.0003C31.6667 62.7618 29.4282 65.0003 26.6667 65.0003C23.9052 65.0003 21.6667 62.7618 21.6667 60.0003C21.6667 58.2222 22.595 56.6607 23.9933 55.7743L23.9795 55.7273C23.7713 55.0135 23.5993 54.1852 23.4855 53.3505C23.4163 52.844 23.3667 52.3197 23.3452 51.8035C21.2842 52.6833 19.3642 53.7467 17.7538 54.9215C14.5495 57.2593 13.3333 59.4452 13.3333 60.9502V66.667H66.6667V60.9502C66.6667 59.4452 65.4505 57.2593 62.2462 54.9215C60.939 53.9678 59.4278 53.0877 57.803 52.3195C57.7767 52.666 57.7392 53.0122 57.693 53.3505C57.6162 53.9145 57.5127 54.4755 57.3893 55.0003H58.3333C58.9647 55.0003 59.5417 55.357 59.824 55.9217L61.4907 59.255C61.6065 59.4863 61.6667 59.7417 61.6667 60.0003V63.3337C61.6667 64.2542 60.9205 65.0003 60 65.0003H56.6667V61.667H58.3333V60.3938L57.3033 58.3337H52.6967L51.6667 60.3938V61.667H53.3333V65.0003H50C49.0795 65.0003 48.3333 64.2542 48.3333 63.3337V60.0003C48.3333 59.7417 48.3935 59.4863 48.5093 59.255L50.176 55.9217C50.4583 55.357 51.0353 55.0003 51.6667 55.0003H53.936C53.9568 54.9352 53.9778 54.8665 53.999 54.794C54.1553 54.258 54.2958 53.5932 54.3903 52.9002C54.4838 52.2143 54.5268 51.5413 54.5072 50.9713ZM28.3333 60.0003C28.3333 60.9573 27.564 61.6915 26.6667 61.6915C25.7693 61.6915 25 60.9573 25 60.0003C25 59.0433 25.7693 58.3092 26.6667 58.3092C27.564 58.3092 28.3333 59.0433 28.3333 60.0003Z" fill="#758AD6"/>
</svg>
