<svg width="80" height="80" viewBox="0 0 80 80" fill="none" xmlns="http://www.w3.org/2000/svg">
<path fill-rule="evenodd" clip-rule="evenodd" d="M26.8268 18.509C24.3733 16.0542 20.394 16.0528 17.9387 18.506L16.7652 19.6785C14.5331 19.0441 12.0359 19.6118 10.2784 21.3811C7.68499 23.9921 7.68499 28.2296 10.2784 30.8406L11.6667 32.2383V50.0003H6.66667V53.3336H10.0842C9.00372 54.3925 8.33334 55.8681 8.33334 57.5003C8.33334 60.722 10.945 63.3336 14.1667 63.3336C17.3883 63.3336 20 60.722 20 57.5003C20 55.8681 19.3297 54.3925 18.2492 53.3336H61.7508C60.6703 54.3925 60 55.8681 60 57.5003C60 60.722 62.6117 63.3336 65.8333 63.3336C69.055 63.3336 71.6667 60.722 71.6667 57.5003C71.6667 55.8681 70.9963 54.3925 69.9158 53.3336H73.3333V50.0003H66.6667V44.8125C69.5363 44.108 71.6667 41.4991 71.6667 38.3886C71.6667 34.7375 68.7313 31.7776 65.1103 31.7776H30.1833C30.0475 31.7776 29.917 31.7231 29.8208 31.6263L29.2102 31.0116L29.8242 30.3981C32.2797 27.9448 32.281 23.9658 29.8272 21.5108L26.8268 18.509ZM26.8612 28.6466L27.4682 28.0401C28.6212 26.8881 28.6218 25.02 27.4697 23.8673L24.4693 20.8655C23.317 19.7125 21.4478 19.7118 20.2947 20.864L19.7105 21.4476L26.8612 28.6466ZM68.3333 38.3886C68.3333 36.5521 66.8642 35.111 65.1103 35.111H30.1833C29.1553 35.111 28.175 34.6993 27.456 33.9755L17.2795 23.7303C15.9955 22.4375 13.9274 22.4375 12.6433 23.7303C11.3411 25.0413 11.3411 27.1805 12.6433 28.4916L25.7298 41.6665H65.1103C66.8643 41.6665 68.3333 40.2251 68.3333 38.3886ZM23.792 44.4456C24.1445 44.8005 24.6222 44.9998 25.1203 44.9998H63.3333V50.0003H15V35.5941L23.792 44.4456ZM16.6667 57.5003C16.6667 58.881 15.5474 60.0003 14.1667 60.0003C12.786 60.0003 11.6667 58.881 11.6667 57.5003C11.6667 56.1196 12.786 55.0003 14.1667 55.0003C15.5474 55.0003 16.6667 56.1196 16.6667 57.5003ZM65.8333 60.0003C67.214 60.0003 68.3333 58.881 68.3333 57.5003C68.3333 56.1196 67.214 55.0003 65.8333 55.0003C64.4527 55.0003 63.3333 56.1196 63.3333 57.5003C63.3333 58.881 64.4527 60.0003 65.8333 60.0003Z" fill="#758AD6"/>
</svg>
