<svg width="80" height="80" viewBox="0 0 80 80" fill="none" xmlns="http://www.w3.org/2000/svg">
<path fill-rule="evenodd" clip-rule="evenodd" d="M32.9542 13.8364L35.438 12.4231L37.0725 15.254C39.2807 14.5311 41.7743 15.422 42.9868 17.5071L50.5247 30.4684C51.9128 32.8556 51.096 35.9039 48.7003 37.2771L47.2862 38.0877L48.4147 40.2687L43.9582 42.5392L42.943 40.5771L41.831 41.2144C39.4352 42.5876 36.3677 41.7657 34.9795 39.3786L30.1098 31.0051C25.8383 33.4619 22.8927 36.2052 21.3127 39.3424C19.9828 41.9827 19.5457 45.0522 20.2813 48.7376C22.6682 47.4181 25.413 46.6671 28.3333 46.6671C33.7828 46.6671 38.6215 49.2824 41.6625 53.3266L61.806 41.9747L63.4607 44.8684L43.3903 56.1787C44.4223 58.3467 45 60.7727 45 63.3337C45 64.4752 44.8852 65.5901 44.6667 66.6671H66.6667C67.5872 66.6671 68.3333 67.4132 68.3333 68.3337C68.3333 69.2542 67.5872 70.0004 66.6667 70.0004H13.0535C12.1615 67.9589 11.6667 65.7041 11.6667 63.3337C11.6667 58.3414 13.8617 53.8617 17.3393 50.8071C16.0703 45.9281 16.4309 41.6251 18.3355 37.8431C20.311 33.9206 23.8453 30.7652 28.4342 28.1236L27.4417 26.4171C26.375 24.5831 26.6102 22.3586 27.863 20.8036L26.0942 17.7397L28.608 16.3094L26.5393 12.5971L30.9227 10.1904L32.9542 13.8364ZM47.6327 32.1261L40.0948 19.1646C39.6322 18.3689 38.6097 18.0949 37.811 18.5527L30.9418 22.4901C30.1432 22.9477 29.871 23.9639 30.3337 24.7596L37.8715 37.7209C38.3342 38.5167 39.3567 38.7907 40.1553 38.3329L47.0245 34.3956C47.8232 33.9379 48.0953 32.9217 47.6327 32.1261ZM41.2475 66.6671C41.5208 65.6037 41.6667 64.4874 41.6667 63.3337C41.6667 61.3676 41.2412 59.5009 40.477 57.8206L32.4703 62.3327L30.8158 59.4391L38.7267 54.9809C36.2828 51.9439 32.535 50.0004 28.3333 50.0004C20.9695 50.0004 15 55.9699 15 63.3337C15 64.4874 15.1458 65.6037 15.4192 66.6671H41.2475Z" fill="#758AD6"/>
</svg>
