<svg width="68" height="51" viewBox="0 0 68 51" fill="none" xmlns="http://www.w3.org/2000/svg">
<path d="M67.1667 13.0698L67.0833 12.5098L66.9967 12.5298C66.4044 9.75996 65.0399 7.21439 63.0611 5.18767C61.0824 3.16095 58.5702 1.73592 55.8153 1.07745C53.0604 0.41898 50.1754 0.553992 47.494 1.46686C44.8127 2.37973 42.4446 4.03315 40.6637 6.23581C38.8829 8.43847 37.7621 11.1003 37.4311 13.9134C37.1001 16.7265 37.5723 19.5758 38.7931 22.1317C40.014 24.6876 41.9336 26.8456 44.3298 28.356C46.726 29.8664 49.5008 30.6674 52.3333 30.6665C53.0767 30.6665 53.79 30.5532 54.5 30.4498C54.27 31.2232 54.0333 32.0098 53.6533 32.7165C53.2733 33.7432 52.68 34.6332 52.09 35.5298C51.5967 36.4998 50.7267 37.1565 50.0867 37.9865C49.4167 38.7932 48.5033 39.3298 47.78 39.9998C47.07 40.6998 46.14 41.0498 45.4 41.5432C44.6267 41.9865 43.9533 42.4765 43.2333 42.7098L41.4367 43.4498L39.8567 44.1065L41.47 50.5698L43.46 50.0898C44.0967 49.9298 44.8733 49.7432 45.7567 49.5198C46.66 49.3532 47.6233 48.8965 48.6967 48.4798C49.7533 48.0032 50.9833 47.6865 52.1233 46.9232C53.27 46.1965 54.5933 45.5898 55.76 44.6165C56.89 43.6132 58.2533 42.7432 59.26 41.4698C60.36 40.2765 61.4467 39.0232 62.29 37.5965C63.2667 36.2365 63.93 34.7432 64.63 33.2665C65.2633 31.7898 65.7733 30.2798 66.19 28.8132C66.98 25.8732 67.3333 23.0798 67.47 20.6898C67.5833 18.2965 67.5167 16.3065 67.3767 14.8665C67.3298 14.2651 67.2598 13.6658 67.1667 13.0698ZM30.5 13.0698L30.4167 12.5098L30.33 12.5298C29.7377 9.75996 28.3732 7.21439 26.3945 5.18767C24.4157 3.16095 21.9036 1.73592 19.1487 1.07745C16.3938 0.41898 13.5087 0.553992 10.8274 1.46686C8.14599 2.37973 5.7779 4.03315 3.99707 6.23581C2.21624 8.43847 1.09546 11.1003 0.764425 13.9134C0.433385 16.7265 0.90561 19.5758 2.12646 22.1317C3.34731 24.6876 5.26689 26.8456 7.66309 28.356C10.0593 29.8664 12.8342 30.6674 15.6667 30.6665C16.41 30.6665 17.1233 30.5532 17.8333 30.4498C17.6033 31.2232 17.3667 32.0098 16.9867 32.7165C16.6067 33.7432 16.0133 34.6332 15.4233 35.5298C14.93 36.4998 14.06 37.1565 13.42 37.9865C12.75 38.7932 11.8367 39.3298 11.1133 39.9998C10.4033 40.6998 9.47334 41.0498 8.73334 41.5432C7.96001 41.9865 7.28667 42.4765 6.56667 42.7098L4.77001 43.4498C3.76667 43.8598 3.19334 44.0998 3.19334 44.0998L4.80667 50.5632L6.79667 50.0832C7.43334 49.9232 8.21001 49.7365 9.09334 49.5132C9.99667 49.3465 10.96 48.8898 12.0333 48.4732C13.09 47.9965 14.32 47.6798 15.46 46.9165C16.6067 46.1898 17.93 45.5832 19.0967 44.6098C20.2267 43.6065 21.59 42.7365 22.5967 41.4632C23.6967 40.2698 24.7833 39.0165 25.6267 37.5898C26.6033 36.2298 27.2667 34.7365 27.9667 33.2598C28.6 31.7832 29.11 30.2732 29.5267 28.8065C30.3167 25.8665 30.67 23.0732 30.8067 20.6832C30.92 18.2898 30.8533 16.2998 30.7133 14.8598C30.6636 14.2608 30.5924 13.6638 30.5 13.0698Z" fill="#D1D6E4"/>
</svg>
