<svg width="100" height="46" viewBox="0 0 100 46" fill="none" xmlns="http://www.w3.org/2000/svg">
<path d="M60.75 11.7293L58.5625 14.2899C57.7348 13.5658 56.8094 12.957 55.8125 12.4806C54.9633 12.1687 54.063 12.0127 53.1563 12.0206C52.2819 11.974 51.4142 12.1936 50.6719 12.6493C50.3819 12.8171 50.1423 13.0574 49.9777 13.3455C49.813 13.6337 49.7291 13.9596 49.7344 14.2899C49.7194 14.5016 49.7539 14.7138 49.8352 14.9104C49.9164 15.107 50.0422 15.2829 50.2031 15.4246C50.5805 15.7627 51.0364 16.005 51.5312 16.1299C52.1406 16.2986 53.0937 16.5593 54.3125 16.8506C56.1656 17.1663 57.9319 17.8554 59.5 18.8746C60.0083 19.2768 60.4142 19.7895 60.6855 20.3725C60.9566 20.9553 61.0858 21.5923 61.0625 22.2326C61.0795 23.0578 60.9073 23.8765 60.5584 24.6275C60.2095 25.3787 59.6928 26.0432 59.0469 26.5719C57.5152 27.7505 55.6 28.3443 53.6563 28.2433C52.1623 28.2695 50.6772 28.0145 49.2813 27.4919C47.8084 26.8375 46.4609 25.9402 45.2969 24.8393L47.5313 22.2786C48.47 23.1498 49.5205 23.8973 50.6562 24.5019C51.5973 24.9041 52.6141 25.1079 53.6406 25.0999C54.5655 25.1444 55.4817 24.9089 56.2656 24.4253C56.5762 24.223 56.8295 23.9467 57.0017 23.6223C57.1737 23.2977 57.2592 22.9356 57.25 22.5699C57.2534 22.3582 57.2122 22.1481 57.1289 21.9528C57.0455 21.7576 56.9219 21.5814 56.7656 21.4353C56.4523 21.1312 56.0731 20.9004 55.6562 20.7606C54.9167 20.5116 54.1595 20.3169 53.3906 20.1779L52.5156 19.9326C50.6805 19.637 48.9383 18.9343 47.4219 17.8779C46.9538 17.4432 46.5881 16.9132 46.3506 16.3253C46.113 15.7373 46.0094 15.1054 46.0469 14.4739C46.0523 13.7159 46.2372 12.9694 46.587 12.2935C46.9369 11.6176 47.4419 11.0308 48.0625 10.5793C49.5447 9.50188 51.3606 8.9602 53.2031 9.04592C54.5591 9.01742 55.9091 9.23042 57.1875 9.67459C58.5028 10.1193 59.7141 10.8179 60.75 11.7293Z" fill="white"/>
<path d="M78.4375 9.27637V12.343H72.7813V27.6764H69.0938V12.343H63.4375V9.27637H78.4375Z" fill="white"/>
<path d="M93.7656 27.7069L88.1562 18.9516L85.2031 22.0182V27.7682H81.4844V9.36816H85.1719V17.6176L92.9844 9.36816H97.5156L90.6406 16.3909L97.9375 27.7069H93.7656Z" fill="white"/>
<path d="M8.12511 13.9531C8.12511 13.4931 8.26574 13.3551 8.73449 13.3551H13.9689C14.3595 13.3551 14.3595 13.3551 14.3595 12.9871V5.4584C14.3353 4.22454 14.7541 3.02163 15.5424 2.06016C16.3308 1.09869 17.4386 0.439903 18.6719 0.199071C18.7476 0.174969 18.8208 0.144175 18.8907 0.107071C18.7977 0.091914 18.7026 0.091914 18.6094 0.107071C17.1054 0.0735391 15.6474 0.6183 14.547 1.62507C12.9845 3.1584 11.422 4.69173 9.85949 6.22507C8.29699 7.7584 6.65636 9.44507 5.17199 11.1011C4.07681 12.2631 3.18461 13.5945 2.53136 15.0417C2.21805 15.6549 2.06249 16.334 2.07824 17.0197C2.15903 17.8798 2.51802 18.692 3.10277 19.3375C3.6875 19.983 4.46733 20.4282 5.32824 20.6077C6.22006 20.7101 7.1181 20.7511 8.01574 20.7304C8.18761 20.7304 8.18761 20.6231 8.18761 20.5004" fill="white"/>
<path d="M22.8125 6.4088C22.8125 6.5468 22.9844 10.8248 22.9844 12.2355C22.9844 12.6188 22.9844 12.6188 23.3594 12.6188H31.1719C32.4064 12.6308 33.5992 13.0596 34.5497 13.8331C35.5 14.6066 36.1501 15.6776 36.3906 16.8661C36.4147 16.9504 36.4459 17.0325 36.4844 17.1114H36.5781C36.585 17.0093 36.585 16.9069 36.5781 16.8048C36.5601 15.2941 35.9372 13.851 34.8437 12.7875C33.2812 11.2541 31.7187 9.7208 30.1562 8.18746C28.5937 6.65413 26.9219 5.1208 25.2344 3.58746C24.0339 2.46861 22.65 1.55627 21.1406 0.8888C20.4555 0.567867 19.6875 0.457634 18.9375 0.572558C18.1873 0.687482 17.4901 1.0222 16.9375 1.5328C16.0469 2.29946 15.1093 5.15146 15.8125 6.3168" fill="white"/>
<path d="M15.2969 28.045C15.2969 27.907 15.125 23.629 15.125 22.2184C15.125 21.835 15.125 21.835 14.75 21.835H6.9375C5.69648 21.8386 4.49245 21.4204 3.5298 20.6519C2.56714 19.8833 1.90517 18.8115 1.65625 17.6184C1.63219 17.534 1.60083 17.452 1.5625 17.373H1.57812C1.57117 17.4752 1.57117 17.5776 1.57812 17.6797C1.59598 19.1904 2.21902 20.6335 3.3125 21.697C4.875 23.2304 6.4375 24.7637 8 26.297C9.5625 27.8304 11.2344 29.3637 12.9219 30.897C14.1458 32.0073 15.5575 32.8997 17.0937 33.5344C17.7789 33.8553 18.5467 33.9656 19.2969 33.8506C20.0469 33.7357 20.7441 33.401 21.2969 32.8904C22.1875 32.1237 23.125 29.2717 22.4219 28.1064" fill="white"/>
<path d="M29.9219 20.4854C29.9219 20.9454 29.7812 21.0834 29.3125 21.0834H24.0781C23.6875 21.0834 23.6875 21.0834 23.6875 21.4514V28.9801C23.7117 30.2139 23.293 31.4168 22.5045 32.3784C21.7162 33.3398 20.6084 33.9987 19.375 34.2394C19.2994 34.2636 19.2262 34.2943 19.1562 34.3314C19.1562 34.3314 19.1562 34.3314 19.1562 34.4081H19.4375C20.9364 34.409 22.3767 33.8371 23.4531 32.8134C25.0156 31.2801 26.5781 29.7467 28.1406 28.2134C29.7031 26.6801 31.2656 24.9934 32.8281 23.3374C33.9233 22.1754 34.8155 20.844 35.4688 19.3967C35.782 18.7837 35.9377 18.1046 35.9219 17.4187C35.8498 16.5863 35.512 15.7974 34.9566 15.1642C34.4011 14.531 33.6562 14.0859 32.8281 13.8921C31.9305 13.7992 31.0272 13.7685 30.125 13.8001C29.9531 13.8001 29.9531 13.9074 29.9531 14.0301" fill="white"/>
<path d="M5.38899 39.9893V41.5787C5.38899 42.1831 5.36047 42.9164 5.0525 43.2129C4.96125 43.297 4.80157 43.3865 4.64758 43.4144L4.71032 43.8062C4.93274 43.8062 5.15516 43.7166 5.29774 43.6271C5.83954 43.2689 5.87375 42.3567 5.87375 41.5396V40.3979H7.14555V43.7614H7.64743V39.9893H5.38899ZM10.4976 41.5899H9.00335V40.3979H10.5831V39.9893H8.50718V43.7614H10.6687V43.3529H9.00335V41.9929H10.4976V41.5899ZM11.2133 39.9893V41.2598C11.2133 42.1831 11.8406 42.3958 12.3482 42.3958C12.6847 42.3958 13.004 42.3119 13.2721 42.1608H13.2835V43.7614H13.7854V39.9893H13.2835V41.7802C13.0839 41.9033 12.793 41.9929 12.525 41.9929C11.9832 41.9929 11.7094 41.7018 11.7094 41.1869V39.9893H11.2133ZM16.6352 41.5899H15.1409V40.3979H16.7206V39.9893H14.6447V43.7614H16.8063V43.3529H15.1409V41.9929H16.6352V41.5899ZM17.4517 39.9893V43.7502C17.617 43.7726 17.8794 43.795 18.2273 43.795C18.752 43.795 19.2709 43.6775 19.5847 43.3753C19.7842 43.1794 19.9041 42.9107 19.9041 42.5582C19.9041 42.116 19.7044 41.8194 19.4136 41.6347C19.1455 41.4612 18.7863 41.3829 18.4213 41.3829C18.2958 41.3829 18.0677 41.3941 17.9478 41.4108V40.3979H19.6075V39.9893H17.4517ZM17.9478 41.7859C18.0733 41.7747 18.2273 41.7635 18.3414 41.7635C18.6152 41.7635 18.8717 41.8194 19.0714 41.9538C19.2595 42.0824 19.385 42.2784 19.385 42.5694C19.385 42.8044 19.3052 42.9891 19.1741 43.1234C18.9858 43.3193 18.6722 43.4144 18.3642 43.4144C18.1931 43.4144 18.0619 43.4089 17.9478 43.3865V41.7859ZM20.5483 39.9893V43.7614H21.0445V41.9929H22.9038V43.7614H23.4056V39.9893H22.9038V41.5675H21.0445V39.9893H20.5483ZM25.8256 39.9278C24.7991 39.9278 24.0406 40.7113 24.0406 41.909C24.0406 43.0507 24.7534 43.823 25.7686 43.823C26.7495 43.823 27.5538 43.1346 27.5538 41.8362C27.5538 40.7168 26.875 39.9278 25.8256 39.9278ZM25.8028 40.325C26.6298 40.325 27.0291 41.1086 27.0291 41.8585C27.0291 42.7149 26.5842 43.4256 25.7972 43.4256C25.0158 43.4256 24.5709 42.7037 24.5709 41.8978C24.5709 41.0695 24.9816 40.325 25.8028 40.325ZM27.9384 42.0657V42.4294H29.347V42.0657H27.9384ZM30.4286 39.9893V40.9464C30.4286 41.5956 30.3773 42.0993 30.2461 42.5358C30.1548 42.8324 30.0124 43.1067 29.8697 43.3641L29.5789 43.3753L29.6131 44.6681H30.0009L30.0352 43.7614H32.4589L32.4931 44.6681H32.8809L32.9152 43.3753L32.5788 43.3641V39.9893H30.4286ZM30.8906 40.3922H32.0825V43.3584H30.383C30.497 43.157 30.6169 42.9052 30.6967 42.6421C30.8336 42.2167 30.8906 41.7075 30.8906 41.1031V40.3922ZM33.5419 39.9893V43.7614H34.0723L35.2756 41.8866C35.538 41.4668 35.8003 41.0302 35.9886 40.6161L36.0056 40.6217C35.9658 41.0974 35.96 41.5451 35.96 42.1552V43.7614H36.4277V39.9893H35.9316L34.6883 41.9314C34.4088 42.3791 34.1692 42.7876 33.9753 43.1794L33.9639 43.1738C33.9981 42.6701 34.0095 42.1776 34.0095 41.5787V39.9893H33.5419ZM39.2803 42.5749L39.6909 43.7614H40.2214L38.9097 39.9893H38.3108L37.0048 43.7614H37.5181L37.9173 42.5749H39.2803ZM38.02 42.1943L38.3964 41.1031C38.4705 40.8735 38.5333 40.6441 38.5903 40.4203H38.6017C38.6588 40.6385 38.7158 40.8623 38.8013 41.1086L39.1777 42.1943H38.02ZM40.7878 39.9893V43.7614H41.2839V40.3979H42.8295V39.9893H40.7878ZM43.255 39.9893V43.7614H43.7513V41.9929H45.6105V43.7614H46.1123V39.9893H45.6105V41.5675H43.7513V39.9893H43.255ZM48.5323 39.9278C47.5058 39.9278 46.7474 40.7113 46.7474 41.909C46.7474 43.0507 47.4602 43.823 48.4753 43.823C49.4563 43.823 50.2605 43.1346 50.2605 41.8362C50.2605 40.7168 49.5817 39.9278 48.5323 39.9278ZM48.5095 40.325C49.3366 40.325 49.7358 41.1086 49.7358 41.8585C49.7358 42.7149 49.2909 43.4256 48.5039 43.4256C47.7225 43.4256 47.2777 42.7037 47.2777 41.8978C47.2777 41.0695 47.6883 40.325 48.5095 40.325ZM53.4909 43.2522C53.2914 43.3472 52.9834 43.4089 52.6811 43.4089C51.7458 43.4089 51.2041 42.8156 51.2041 41.8921C51.2041 40.9016 51.8028 40.3362 52.7039 40.3362C53.0233 40.3362 53.2914 40.4034 53.4795 40.4929L53.5994 40.0957C53.4681 40.0285 53.1659 39.9278 52.6869 39.9278C51.4949 39.9278 50.6794 40.728 50.6794 41.909C50.6794 43.1458 51.4949 43.8174 52.5784 43.8174C53.0461 43.8174 53.4111 43.7278 53.5936 43.6383L53.4909 43.2522ZM55.1463 43.7614H55.6481V40.4034H56.823V39.9893H53.977V40.4034H55.1463V43.7614ZM57.2511 39.9893V43.7614H57.7814L58.9849 41.8866C59.2472 41.4668 59.5095 41.0302 59.6977 40.6161L59.7148 40.6217C59.6748 41.0974 59.6692 41.5451 59.6692 42.1552V43.7614H60.1369V39.9893H59.6406L58.3973 41.9314C58.118 42.3791 57.8784 42.7876 57.6845 43.1794L57.6731 43.1738C57.7074 42.6701 57.7188 42.1776 57.7188 41.5787V39.9893H57.2511ZM60.943 39.9893V41.2598C60.943 42.1831 61.5703 42.3958 62.0778 42.3958C62.4144 42.3958 62.7338 42.3119 63.0017 42.1608H63.0131V43.7614H63.515V39.9893H63.0131V41.7802C62.8136 41.9033 62.5227 41.9929 62.2547 41.9929C61.7128 41.9929 61.4391 41.7018 61.4391 41.1869V39.9893H60.943ZM66.3648 41.5899H64.8706V40.3979H66.4503V39.9893H64.3744V43.7614H66.5359V43.3529H64.8706V41.9929H66.3648V41.5899ZM69.765 43.2522C69.5653 43.3472 69.2574 43.4089 68.9552 43.4089C68.0199 43.4089 67.478 42.8156 67.478 41.8921C67.478 40.9016 68.0769 40.3362 68.978 40.3362C69.2973 40.3362 69.5653 40.4034 69.7536 40.4929L69.8733 40.0957C69.7422 40.0285 69.4398 39.9278 68.9608 39.9278C67.7689 39.9278 66.9533 40.728 66.9533 41.909C66.9533 43.1458 67.7689 43.8174 68.8525 43.8174C69.3202 43.8174 69.6852 43.7278 69.8677 43.6383L69.765 43.2522ZM70.4897 39.9893V43.7614H70.9802V42.0321H71.1398C71.79 42.0321 72.0352 42.3734 72.212 42.8716C72.3147 43.1682 72.423 43.504 72.5599 43.7614H73.0959C72.9249 43.4256 72.8166 43.0786 72.6739 42.6925C72.4744 42.1831 72.2291 41.8026 71.5961 41.7187L73.0503 39.9893H72.4516L71.1341 41.6627H70.9802V39.9893H70.4897ZM73.5808 39.9893V43.7614H74.1111L75.3145 41.8866C75.5769 41.4668 75.8392 41.0302 76.0274 40.6161L76.0445 40.6217C76.0045 41.0974 75.9989 41.5451 75.9989 42.1552V43.7614H76.4666V39.9893H75.9703L74.727 41.9314C74.4477 42.3791 74.2081 42.7876 74.0142 43.1794L74.0028 43.1738C74.037 42.6701 74.0484 42.1776 74.0484 41.5787V39.9893H73.5808ZM77.3345 39.9893V43.7614H77.865L79.0683 41.8866C79.3306 41.4668 79.593 41.0302 79.7813 40.6161L79.7983 40.6217C79.7584 41.0974 79.7527 41.5451 79.7527 42.1552V43.7614H80.2203V39.9893H79.7242L78.4809 41.9314C78.2014 42.3791 77.9619 42.7876 77.768 43.1794L77.7566 43.1738C77.7908 42.6701 77.8022 42.1776 77.8022 41.5787V39.9893H77.3345ZM78.0475 39.2002C78.0759 39.5696 78.2984 39.799 78.7661 39.799C79.2508 39.799 79.4789 39.5696 79.5075 39.2002H79.1253C79.1025 39.3848 79.0398 39.5472 78.7775 39.5472C78.5094 39.5472 78.4524 39.3736 78.4295 39.2002H78.0475ZM82.2969 39.9893V43.7614H84.9317L84.9659 44.6681H85.3595L85.3938 43.3753L85.0572 43.3641V39.9893H84.5553V43.3529H82.7931V39.9893H82.2969ZM88.0077 41.5899H86.5134V40.3979H88.0933V39.9893H86.0173V43.7614H88.1788V43.3529H86.5134V41.9929H88.0077V41.5899ZM88.8244 39.9893V43.7614H89.3205V41.9929H91.1797V43.7614H91.6816V39.9893H91.1797V41.5675H89.3205V39.9893H88.8244ZM93.2747 43.7614H93.7766V40.4034H94.9514V39.9893H92.1056V40.4034H93.2747V43.7614ZM95.3795 43.7614H95.8758V42.2503C95.9899 42.2784 96.1267 42.2839 96.275 42.2839C96.7597 42.2839 97.1875 42.144 97.4499 41.8697C97.6438 41.6739 97.7464 41.4053 97.7464 41.0638C97.7464 40.728 97.6209 40.4538 97.4099 40.2748C97.1817 40.0733 96.8225 39.9613 96.332 39.9613C95.9328 39.9613 95.6191 39.9949 95.3795 40.034V43.7614ZM95.8758 40.3867C95.9613 40.3643 96.1267 40.3474 96.3434 40.3474C96.8909 40.3474 97.2502 40.5882 97.2502 41.0862C97.2502 41.6068 96.8852 41.8921 96.2864 41.8921C96.1209 41.8921 95.9841 41.8809 95.8758 41.853V40.3867Z" fill="white"/>
</svg>
