<svg width="43" height="44" viewBox="0 0 43 44" fill="none" xmlns="http://www.w3.org/2000/svg">
<path d="M38.1509 4.2845C37.0262 3.27916 32.4744 0.0740938 22.3259 0.0311305C22.3259 0.0311305 10.362 -0.664876 4.53499 4.5251C1.29384 7.67001 0.151465 12.2843 0.0274862 17.9984C-0.0964922 23.7125 -0.247038 34.419 10.3885 37.3233H10.3974L10.3885 41.7571C10.3885 41.7571 10.3177 43.553 11.5398 43.9139C13.0098 44.3607 13.8776 42.9945 15.2857 41.5251C16.0561 40.7174 17.1188 39.5316 17.9247 38.6294C25.204 39.2223 30.7918 37.8647 31.4295 37.667C32.8995 37.203 41.2149 36.1719 42.5609 25.4654C43.9601 14.4153 41.8879 7.43801 38.1509 4.2845ZM39.3818 24.6577C38.2394 33.5941 31.5003 34.1612 30.2605 34.5479C29.7292 34.7111 24.8143 35.8969 18.642 35.5103C18.642 35.5103 14.037 40.8979 12.6024 42.2985C12.1331 42.7539 11.6195 42.7109 11.6283 41.8087C11.6283 41.2158 11.6637 34.4448 11.6637 34.4448C11.6549 34.4448 11.6549 34.4448 11.6637 34.4448C2.64874 32.0216 3.18008 22.9048 3.27749 18.1359C3.3749 13.367 4.30474 9.45729 7.04998 6.82793C11.9825 2.48863 22.1399 3.13308 22.1399 3.13308C30.721 3.16746 34.83 5.67651 35.7864 6.5186C38.9479 9.14795 40.5596 15.4378 39.3818 24.6577ZM27.0725 17.7148C27.1079 18.4538 25.9655 18.5054 25.9301 17.7664C25.8327 15.876 24.9206 14.9566 23.0432 14.8535C22.2816 14.8105 22.3525 13.7021 23.1052 13.745C25.5759 13.8739 26.9485 15.2487 27.0725 17.7148ZM28.8702 18.6858C28.9587 15.0425 26.612 12.1898 22.1576 11.8718C21.4049 11.8203 21.4846 10.7118 22.2373 10.7634C27.3736 11.1243 30.11 14.5527 30.0126 18.7116C30.0037 19.4506 28.8525 19.4162 28.8702 18.6858ZM33.0323 19.8372C33.0412 20.5762 31.8899 20.5848 31.8899 19.8458C31.8368 12.8428 27.0282 9.02766 21.1924 8.98469C20.4396 8.9761 20.4396 7.87624 21.1924 7.87624C27.719 7.9192 32.9703 12.2929 33.0323 19.8372ZM32.0316 28.2666V28.2838C31.0752 29.9164 29.2864 31.7209 27.4444 31.1452L27.4267 31.1194C25.5582 30.6124 21.157 28.4127 18.3763 26.2646C16.9417 25.1647 15.6311 23.8672 14.6215 22.6213C13.7094 21.5128 12.7884 20.1981 11.894 18.6171C10.0077 15.3089 9.59154 13.831 9.59154 13.831C8.99821 12.0437 10.849 10.308 12.5405 9.37996H12.5582C13.3729 8.96751 14.1522 9.10499 14.6747 9.71507C14.6747 9.71507 15.7727 10.9868 16.2421 11.614C16.6849 12.1984 17.2782 13.135 17.5881 13.6591C18.1283 14.5957 17.7918 15.5495 17.2605 15.9448L16.1978 16.7697C15.6576 17.1907 15.7285 17.9726 15.7285 17.9726C15.7285 17.9726 17.3048 23.7555 23.1937 25.2162C23.1937 25.2162 23.9996 25.285 24.4335 24.7608L25.2837 23.7297C25.691 23.2142 26.674 22.8876 27.6393 23.4118C28.941 24.125 30.597 25.2334 31.6951 26.2388C32.315 26.7286 32.4567 27.4761 32.0316 28.2666Z" fill="#758AD6"/>
</svg>
