<svg width="48" height="29" viewBox="0 0 48 29" fill="none" xmlns="http://www.w3.org/2000/svg">
<path d="M46.309 2.66779C46.6301 1.60245 46.309 0.818359 44.7638 0.818359H39.651C38.3489 0.818359 37.7499 1.49165 37.4288 2.24165C37.4288 2.24165 34.8246 8.47177 31.144 12.5115C29.9548 13.6792 29.4079 14.0542 28.7569 14.0542C28.4357 14.0542 27.9409 13.6792 27.9409 12.6138V2.66779C27.9409 1.38938 27.5763 0.818359 26.4999 0.818359H18.4617C17.6458 0.818359 17.1596 1.41495 17.1596 1.96893C17.1596 3.17916 18.9999 3.46041 19.1909 6.8695V14.2672C19.1909 15.8865 18.8958 16.1848 18.2447 16.1848C16.5086 16.1848 12.2899 9.92916 9.78985 2.77006C9.28638 1.38086 8.79159 0.818359 7.48082 0.818359H2.36797C0.909641 0.818359 0.614502 1.49165 0.614502 2.24165C0.614502 3.5712 2.35061 10.1763 8.6961 18.9036C12.9235 24.861 18.8784 28.0911 24.2951 28.0911C27.5503 28.0911 27.9496 27.3752 27.9496 26.1394C27.9496 20.4462 27.6544 19.9093 29.2864 19.9093C30.0416 19.9093 31.3437 20.2843 34.3819 23.1564C37.8541 26.5655 38.427 28.0911 40.3715 28.0911H45.4843C46.9426 28.0911 47.6805 27.3752 47.2551 25.9604C46.2829 22.986 39.7117 16.8667 39.4166 16.4576C38.6614 15.503 38.8784 15.0769 39.4166 14.2246C39.4253 14.2161 45.6666 5.59109 46.309 2.66779Z" fill="#758AD6"/>
</svg>
