<svg width="41" height="42" viewBox="0 0 41 42" fill="none" xmlns="http://www.w3.org/2000/svg">
<path d="M34.8591 6.10312C31.0246 2.16562 25.9179 0 20.4908 0C9.28906 0 0.173884 9.3375 0.173884 20.8125C0.173884 24.4781 1.10737 28.0594 2.88281 31.2188L0 42L10.7717 39.1031C13.7368 40.7625 17.0772 41.6344 20.4817 41.6344H20.4908C31.6835 41.6344 41 32.2969 41 20.8219C41 15.2625 38.6937 10.0406 34.8591 6.10312ZM20.4908 38.1281C17.4525 38.1281 14.4781 37.2938 11.8882 35.7188L11.275 35.3438L4.88705 37.0594L6.58929 30.675L6.18661 30.0188C4.49353 27.2625 3.6058 24.0844 3.6058 20.8125C3.6058 11.2781 11.1835 3.51562 20.5 3.51562C25.0118 3.51562 29.2491 5.31562 32.4339 8.5875C35.6188 11.8594 37.5772 16.2 37.5681 20.8219C37.5681 30.3656 29.7982 38.1281 20.4908 38.1281ZM29.7525 25.1719C29.2491 24.9094 26.7507 23.6531 26.2839 23.4844C25.8172 23.3062 25.4786 23.2219 25.14 23.7469C24.8013 24.2719 23.8313 25.4344 23.5292 25.7906C23.2364 26.1375 22.9344 26.1844 22.431 25.9219C19.4475 24.3937 17.4891 23.1938 15.5214 19.7344C14.9998 18.8156 16.0431 18.8813 17.0132 16.8937C17.1779 16.5469 17.0955 16.2469 16.9674 15.9844C16.8393 15.7219 15.8234 13.1625 15.4025 12.1219C14.9906 11.1094 14.5696 11.25 14.2585 11.2313C13.9656 11.2125 13.627 11.2125 13.2884 11.2125C12.9498 11.2125 12.4007 11.3438 11.9339 11.8594C11.4672 12.3844 10.1585 13.6406 10.1585 16.2C10.1585 18.7594 11.9797 21.2344 12.2268 21.5813C12.483 21.9281 15.8051 27.1781 20.9027 29.4375C24.1241 30.8625 25.3871 30.9844 26.9978 30.7406C27.977 30.5906 29.9996 29.4844 30.4205 28.2656C30.8415 27.0469 30.8415 26.0063 30.7134 25.7906C30.5944 25.5563 30.2558 25.425 29.7525 25.1719Z" fill="#758AD6"/>
</svg>
