<svg width="48" height="34" viewBox="0 0 48 34" fill="none" xmlns="http://www.w3.org/2000/svg">
<path d="M46.7131 5.45941C46.1679 3.39042 44.5615 1.76095 42.5218 1.20796C38.8247 0.203125 24 0.203125 24 0.203125C24 0.203125 9.17535 0.203125 5.47821 1.20796C3.43854 1.76104 1.83212 3.39042 1.28689 5.45941C0.296265 9.20957 0.296265 17.0339 0.296265 17.0339C0.296265 17.0339 0.296265 24.8583 1.28689 28.6085C1.83212 30.6775 3.43854 32.2391 5.47821 32.792C9.17535 33.7969 24 33.7969 24 33.7969C24 33.7969 38.8247 33.7969 42.5218 32.792C44.5615 32.2391 46.1679 30.6775 46.7131 28.6085C47.7037 24.8583 47.7037 17.0339 47.7037 17.0339C47.7037 17.0339 47.7037 9.20957 46.7131 5.45941ZM19.1515 24.1379V9.93L31.542 17.0341L19.1515 24.1379Z" fill="#758AD6"/>
</svg>
